<svg xmlns="http://www.w3.org/2000/svg" xmlns:xlink="http://www.w3.org/1999/xlink" version="1.1" width="1000" height="1000" viewBox="0 0 1000 1000" xml:space="preserve">
<desc>Created with Fabric.js 3.5.0</desc>
<defs>
</defs>
<rect x="0" y="0" width="100%" height="100%" fill="rgba(255,255,255,0)"/>
<g transform="matrix(1.7756 0 0 1.7756 500.0081 500.0081)" id="537003">
<g style="" vector-effect="non-scaling-stroke">
		<g transform="matrix(8 0 0 8 -157.1712 -112)" id="Computer-Engineer-Coding-Programing-Configulation">
<path style="stroke: none; stroke-width: 1; stroke-dasharray: none; stroke-linecap: butt; stroke-dashoffset: 0; stroke-linejoin: miter; stroke-miterlimit: 4; is-custom-font: none; font-file-url: none; fill: rgb(37,132,255); fill-rule: nonzero; opacity: 1;" transform=" translate(-12.3536, -18)" d="m 13.293 14.293 l -3 3 a 1 1 0 0 0 0 1.414 l 3 3 l 1.414 -1.414 l -2.293 -2.293 l 2.293 -2.293 z" stroke-linecap="round"/>
</g>
		<g transform="matrix(2.808 -7.488 7.488 2.808 -108.068 -111.9681)" id="Computer-Engineer-Coding-Programing-Configulation">
<path style="stroke: none; stroke-width: 1; stroke-dasharray: none; stroke-linecap: butt; stroke-dashoffset: 0; stroke-linejoin: miter; stroke-miterlimit: 4; is-custom-font: none; font-file-url: none; fill: rgb(37,132,255); fill-rule: nonzero; opacity: 1;" transform=" translate(-18.5, -18)" d="m 14.228 17 h 8.544 v 2 h -8.544 z" stroke-linecap="round"/>
</g>
		<g transform="matrix(8 0 0 8 -58.8289 -112)" id="Computer-Engineer-Coding-Programing-Configulation">
<path style="stroke: none; stroke-width: 1; stroke-dasharray: none; stroke-linecap: butt; stroke-dashoffset: 0; stroke-linejoin: miter; stroke-miterlimit: 4; is-custom-font: none; font-file-url: none; fill: rgb(37,132,255); fill-rule: nonzero; opacity: 1;" transform=" translate(-24.6464, -18)" d="m 23.707 21.707 l 3 -3 a 1 1 0 0 0 0 -1.414 l -3 -3 l -1.414 1.414 l 2.293 2.293 l -2.293 2.293 z" stroke-linecap="round"/>
</g>
		<g transform="matrix(8 0 0 8 -160 -40)" id="Computer-Engineer-Coding-Programing-Configulation">
<path style="stroke: none; stroke-width: 1; stroke-dasharray: none; stroke-linecap: butt; stroke-dashoffset: 0; stroke-linejoin: miter; stroke-miterlimit: 4; is-custom-font: none; font-file-url: none; fill: rgb(37,132,255); fill-rule: nonzero; opacity: 1;" transform=" translate(-12, -27)" d="m 10 26 h 4 v 2 h -4 z" stroke-linecap="round"/>
</g>
		<g transform="matrix(8 0 0 8 -88 -40)" id="Computer-Engineer-Coding-Programing-Configulation">
<path style="stroke: none; stroke-width: 1; stroke-dasharray: none; stroke-linecap: butt; stroke-dashoffset: 0; stroke-linejoin: miter; stroke-miterlimit: 4; is-custom-font: none; font-file-url: none; fill: rgb(37,132,255); fill-rule: nonzero; opacity: 1;" transform=" translate(-21, -27)" d="m 16 26 h 10 v 2 h -10 z" stroke-linecap="round"/>
</g>
		<g transform="matrix(8 0 0 8 -144 -8)" id="Computer-Engineer-Coding-Programing-Configulation">
<path style="stroke: none; stroke-width: 1; stroke-dasharray: none; stroke-linecap: butt; stroke-dashoffset: 0; stroke-linejoin: miter; stroke-miterlimit: 4; is-custom-font: none; font-file-url: none; fill: rgb(37,132,255); fill-rule: nonzero; opacity: 1;" transform=" translate(-14, -31)" d="m 12 30 h 4 v 2 h -4 z" stroke-linecap="round"/>
</g>
		<g transform="matrix(8 0 0 8 -72 -8)" id="Computer-Engineer-Coding-Programing-Configulation">
<path style="stroke: none; stroke-width: 1; stroke-dasharray: none; stroke-linecap: butt; stroke-dashoffset: 0; stroke-linejoin: miter; stroke-miterlimit: 4; is-custom-font: none; font-file-url: none; fill: rgb(37,132,255); fill-rule: nonzero; opacity: 1;" transform=" translate(-23, -31)" d="m 18 30 h 10 v 2 h -10 z" stroke-linecap="round"/>
</g>
		<g transform="matrix(8 0 0 8 -8 -8)" id="Computer-Engineer-Coding-Programing-Configulation">
<path style="stroke: none; stroke-width: 1; stroke-dasharray: none; stroke-linecap: butt; stroke-dashoffset: 0; stroke-linejoin: miter; stroke-miterlimit: 4; is-custom-font: none; font-file-url: none; fill: rgb(37,132,255); fill-rule: nonzero; opacity: 1;" transform=" translate(-31, -31)" d="m 30 30 h 2 v 2 h -2 z" stroke-linecap="round"/>
</g>
		<g transform="matrix(8 0 0 8 -144 24)" id="Computer-Engineer-Coding-Programing-Configulation">
<path style="stroke: none; stroke-width: 1; stroke-dasharray: none; stroke-linecap: butt; stroke-dashoffset: 0; stroke-linejoin: miter; stroke-miterlimit: 4; is-custom-font: none; font-file-url: none; fill: rgb(37,132,255); fill-rule: nonzero; opacity: 1;" transform=" translate(-14, -35)" d="m 12 34 h 4 v 2 h -4 z" stroke-linecap="round"/>
</g>
		<g transform="matrix(8 0 0 8 -72 24)" id="Computer-Engineer-Coding-Programing-Configulation">
<path style="stroke: none; stroke-width: 1; stroke-dasharray: none; stroke-linecap: butt; stroke-dashoffset: 0; stroke-linejoin: miter; stroke-miterlimit: 4; is-custom-font: none; font-file-url: none; fill: rgb(37,132,255); fill-rule: nonzero; opacity: 1;" transform=" translate(-23, -35)" d="m 18 34 h 10 v 2 h -10 z" stroke-linecap="round"/>
</g>
		<g transform="matrix(8 0 0 8 -8 24)" id="Computer-Engineer-Coding-Programing-Configulation">
<path style="stroke: none; stroke-width: 1; stroke-dasharray: none; stroke-linecap: butt; stroke-dashoffset: 0; stroke-linejoin: miter; stroke-miterlimit: 4; is-custom-font: none; font-file-url: none; fill: rgb(37,132,255); fill-rule: nonzero; opacity: 1;" transform=" translate(-31, -35)" d="m 30 34 h 2 v 2 h -2 z" stroke-linecap="round"/>
</g>
		<g transform="matrix(8 0 0 8 128 -128)" id="Computer-Engineer-Coding-Programing-Configulation">
<path style="stroke: none; stroke-width: 1; stroke-dasharray: none; stroke-linecap: butt; stroke-dashoffset: 0; stroke-linejoin: miter; stroke-miterlimit: 4; is-custom-font: none; font-file-url: none; fill: rgb(37,132,255); fill-rule: nonzero; opacity: 1;" transform=" translate(-48, -16)" d="m 61.142 13.01 l -2.682 -0.383 a 10.86 10.86 0 0 0 -0.679 -1.639 l 1.625 -2.166 a 1 1 0 0 0 -0.093 -1.307 l -2.828 -2.828 a 1 1 0 0 0 -1.306 -0.093 l -2.167 1.624 a 10.9 10.9 0 0 0 -1.639 -0.678 l -0.383 -2.682 a 1 1 0 0 0 -0.99 -0.858 h -4 a 1 1 0 0 0 -0.99 0.858 l -0.383 2.682 a 10.855 10.855 0 0 0 -1.639 0.678 l -2.167 -1.624 a 1 1 0 0 0 -1.306 0.093 l -2.828 2.828 a 1 1 0 0 0 -0.093 1.307 l 1.625 2.166 a 10.86 10.86 0 0 0 -0.679 1.639 l -2.682 0.383 a 1 1 0 0 0 -0.858 0.99 v 4 a 1 1 0 0 0 0.858 0.99 l 2.682 0.383 a 10.86 10.86 0 0 0 0.679 1.639 l -1.625 2.166 a 1 1 0 0 0 0.093 1.307 l 2.828 2.828 a 1 1 0 0 0 1.306 0.093 l 2.167 -1.624 a 10.855 10.855 0 0 0 1.639 0.678 l 0.383 2.682 a 1 1 0 0 0 0.99 0.858 h 4 a 1 1 0 0 0 0.99 -0.858 l 0.383 -2.682 a 10.9 10.9 0 0 0 1.639 -0.678 l 2.167 1.624 a 1 1 0 0 0 1.306 -0.093 l 2.828 -2.828 a 1 1 0 0 0 0.093 -1.307 l -1.625 -2.166 a 10.86 10.86 0 0 0 0.679 -1.639 l 2.682 -0.383 a 1 1 0 0 0 0.858 -0.99 v -4 a 1 1 0 0 0 -0.858 -0.99 z m -1.142 4.123 l -2.463 0.352 a 1 1 0 0 0 -0.827 0.742 a 8.923 8.923 0 0 1 -0.977 2.357 a 1 1 0 0 0 0.061 1.111 l 1.492 1.99 l -1.6 1.6 l -1.991 -1.492 a 1 1 0 0 0 -1.11 -0.06 a 8.859 8.859 0 0 1 -2.356 0.975 a 1 1 0 0 0 -0.744 0.828 l -0.352 2.464 h -2.266 l -0.351 -2.463 a 1 1 0 0 0 -0.744 -0.828 a 8.859 8.859 0 0 1 -2.356 -0.975 a 1 1 0 0 0 -1.11 0.06 l -1.991 1.492 l -1.6 -1.6 l 1.492 -1.99 a 1 1 0 0 0 0.061 -1.111 a 8.923 8.923 0 0 1 -0.977 -2.357 a 1 1 0 0 0 -0.827 -0.742 l -2.464 -0.353 v -2.266 l 2.463 -0.352 a 1 1 0 0 0 0.827 -0.742 a 8.923 8.923 0 0 1 0.977 -2.357 a 1 1 0 0 0 -0.061 -1.111 l -1.492 -1.99 l 1.6 -1.6 l 1.991 1.492 a 1 1 0 0 0 1.11 0.06 a 8.859 8.859 0 0 1 2.356 -0.975 a 1 1 0 0 0 0.744 -0.828 l 0.352 -2.464 h 2.266 l 0.351 2.463 a 1 1 0 0 0 0.744 0.828 a 8.859 8.859 0 0 1 2.356 0.975 a 1 1 0 0 0 1.11 -0.06 l 1.991 -1.492 l 1.6 1.6 l -1.492 1.99 a 1 1 0 0 0 -0.061 1.111 a 8.923 8.923 0 0 1 0.977 2.357 a 1 1 0 0 0 0.827 0.742 l 2.464 0.353 z" stroke-linecap="round"/>
</g>
		<g transform="matrix(8 0 0 8 128 -128)" id="Computer-Engineer-Coding-Programing-Configulation">
<path style="stroke: none; stroke-width: 1; stroke-dasharray: none; stroke-linecap: butt; stroke-dashoffset: 0; stroke-linejoin: miter; stroke-miterlimit: 4; is-custom-font: none; font-file-url: none; fill: rgb(37,132,255); fill-rule: nonzero; opacity: 1;" transform=" translate(-48, -16)" d="m 48 10 a 6 6 0 1 0 6 6 a 6.006 6.006 0 0 0 -6 -6 z m 0 10 a 4 4 0 1 1 4 -4 a 4 4 0 0 1 -4 4 z" stroke-linecap="round"/>
</g>
		<g transform="matrix(8 0 0 8 -32 32)" id="Computer-Engineer-Coding-Programing-Configulation">
<path style="stroke: none; stroke-width: 1; stroke-dasharray: none; stroke-linecap: butt; stroke-dashoffset: 0; stroke-linejoin: miter; stroke-miterlimit: 4; is-custom-font: none; font-file-url: none; fill: rgb(37,132,255); fill-rule: nonzero; opacity: 1;" transform=" translate(-28, -36)" d="m 52 40 h -48 v -25 a 3 3 0 0 1 3 -3 h 28 v -2 h -28 a 5.006 5.006 0 0 0 -5 5 v 30 a 5.006 5.006 0 0 0 5 5 h 12.867 l -0.75 6 h -2.117 a 2 2 0 0 0 -2 2 v 2 a 2 2 0 0 0 2 2 h 22 a 2 2 0 0 0 2 -2 v -2 a 2 2 0 0 0 -2 -2 h -2.117 l -0.75 -6 h 12.867 a 5.006 5.006 0 0 0 5 -5 v -16 h -2 z m -13 20 h -22 v -2 h 22 z m -4.133 -4 h -13.734 l 0.75 -6 h 12.234 z m 14.133 -8 h -42 a 3 3 0 0 1 -3 -3 v -3 h 48 v 3 a 3 3 0 0 1 -3 3 z" stroke-linecap="round"/>
</g>
		<g transform="matrix(8 0 0 8 120 104)" id="Computer-Engineer-Coding-Programing-Configulation">
<path style="stroke: none; stroke-width: 1; stroke-dasharray: none; stroke-linecap: butt; stroke-dashoffset: 0; stroke-linejoin: miter; stroke-miterlimit: 4; is-custom-font: none; font-file-url: none; fill: rgb(37,132,255); fill-rule: nonzero; opacity: 1;" transform=" translate(-47, -45)" d="m 46 44 h 2 v 2 h -2 z" stroke-linecap="round"/>
</g>
</g>
</g>
</svg>