<svg xmlns="http://www.w3.org/2000/svg" xmlns:xlink="http://www.w3.org/1999/xlink" version="1.1" width="1000" height="1000" viewBox="0 0 1000 1000" xml:space="preserve">
<desc>Created with Fabric.js 3.5.0</desc>
<defs>
</defs>
<rect x="0" y="0" width="100%" height="100%" fill="rgba(255,255,255,0)"/>
<g transform="matrix(1.7756 0 0 1.7756 500.0081 500.0081)" id="983815">
<g style="" vector-effect="non-scaling-stroke">
		<g transform="matrix(1 0 0 1 -128 104)" id="Out_line">
<path style="stroke: none; stroke-width: 1; stroke-dasharray: none; stroke-linecap: butt; stroke-dashoffset: 0; stroke-linejoin: miter; stroke-miterlimit: 4; is-custom-font: none; font-file-url: none; fill: rgb(37,132,255); fill-rule: nonzero; opacity: 1;" transform=" translate(-128, -360)" d="m 184 304 h -112 a 8.00008 8.00008 0 0 0 -8 8 v 96 a 8.00008 8.00008 0 0 0 8 8 h 112 a 8.00008 8.00008 0 0 0 8 -8 v -96 a 8.00008 8.00008 0 0 0 -8 -8 z m -8 96 h -96 v -80 h 96 z" stroke-linecap="round"/>
</g>
		<g transform="matrix(1 0 0 1 -144 88)" id="Out_line">
<path style="stroke: none; stroke-width: 1; stroke-dasharray: none; stroke-linecap: butt; stroke-dashoffset: 0; stroke-linejoin: miter; stroke-miterlimit: 4; is-custom-font: none; font-file-url: none; fill: rgb(37,132,255); fill-rule: nonzero; opacity: 1;" transform=" translate(-112, -344)" d="m 96 336 h 32 v 16 h -32 z" stroke-linecap="round"/>
</g>
		<g transform="matrix(1 0 0 1 -112 120)" id="Out_line">
<path style="stroke: none; stroke-width: 1; stroke-dasharray: none; stroke-linecap: butt; stroke-dashoffset: 0; stroke-linejoin: miter; stroke-miterlimit: 4; is-custom-font: none; font-file-url: none; fill: rgb(37,132,255); fill-rule: nonzero; opacity: 1;" transform=" translate(-144, -376)" d="m 128 368 h 32 v 16 h -32 z" stroke-linecap="round"/>
</g>
		<g transform="matrix(1 0 0 1 0 -0.0001)" id="Out_line">
<path style="stroke: none; stroke-width: 1; stroke-dasharray: none; stroke-linecap: butt; stroke-dashoffset: 0; stroke-linejoin: miter; stroke-miterlimit: 4; is-custom-font: none; font-file-url: none; fill: rgb(37,132,255); fill-rule: nonzero; opacity: 1;" transform=" translate(-256, -255.9999)" d="m 380 64 h -244 v -40 a 7.99985 7.99985 0 0 0 -12.87793 -6.34082 l -104 80 a 8 8 0 0 0 0 12.68164 l 104 80 a 7.99985 7.99985 0 0 0 12.87793 -6.34082 v -40 h 216 a 64.07239 64.07239 0 0 1 64 64 v 144 a 63.89737 63.89737 0 0 1 -48 61.99341 v -181.99341 a 8.00008 8.00008 0 0 0 -8 -8 h -336 a 8.00008 8.00008 0 0 0 -8 8 v 256 a 8.00008 8.00008 0 0 0 8 8 h 356 a 116.13134 116.13134 0 0 0 116 -116 v -200 a 116.13134 116.13134 0 0 0 -116 -116 z m -28 176 v 192 h -112 v -192 z m -208 0 v 32 h -32 v -32 z m -112 0 h 64 v 40 a 8.00008 8.00008 0 0 0 8 8 h 48 a 8.00008 8.00008 0 0 0 8 -8 v -40 h 64 v 192 h -192 z m 448 140 a 100.113 100.113 0 0 1 -100 100 h -348 v -32 h 328 a 8.00008 8.00008 0 0 0 8 -8 v -9.605 a 79.86446 79.86446 0 0 0 64 -78.395 v -144 a 80.09041 80.09041 0 0 0 -80 -80 h -224 a 8.00008 8.00008 0 0 0 -8 8 v 31.75293 l -82.87891 -63.75293 l 82.87891 -63.75293 v 31.75293 a 8.00008 8.00008 0 0 0 8 8 h 252 a 100.113 100.113 0 0 1 100 100 z" stroke-linecap="round"/>
</g>
		<g transform="matrix(1 0 0 1 72 152)" id="Out_line">
<path style="stroke: none; stroke-width: 1; stroke-dasharray: none; stroke-linecap: butt; stroke-dashoffset: 0; stroke-linejoin: miter; stroke-miterlimit: 4; is-custom-font: none; font-file-url: none; fill: rgb(37,132,255); fill-rule: nonzero; opacity: 1;" transform=" translate(-328, -408)" d="m 320 400 h 16 v 16 h -16 z" stroke-linecap="round"/>
</g>
		<g transform="matrix(1 0 0 1 40 152)" id="Out_line">
<path style="stroke: none; stroke-width: 1; stroke-dasharray: none; stroke-linecap: butt; stroke-dashoffset: 0; stroke-linejoin: miter; stroke-miterlimit: 4; is-custom-font: none; font-file-url: none; fill: rgb(37,132,255); fill-rule: nonzero; opacity: 1;" transform=" translate(-296, -408)" d="m 288 400 h 16 v 16 h -16 z" stroke-linecap="round"/>
</g>
		<g transform="matrix(1 0 0 1 8 152)" id="Out_line">
<path style="stroke: none; stroke-width: 1; stroke-dasharray: none; stroke-linecap: butt; stroke-dashoffset: 0; stroke-linejoin: miter; stroke-miterlimit: 4; is-custom-font: none; font-file-url: none; fill: rgb(37,132,255); fill-rule: nonzero; opacity: 1;" transform=" translate(-264, -408)" d="m 256 400 h 16 v 16 h -16 z" stroke-linecap="round"/>
</g>
</g>
</g>
</svg>