<svg xmlns="http://www.w3.org/2000/svg" xmlns:xlink="http://www.w3.org/1999/xlink" version="1.1" width="1000" height="1000" viewBox="0 0 1000 1000" xml:space="preserve">
<desc>Created with Fabric.js 3.5.0</desc>
<defs>
</defs>
<rect x="0" y="0" width="100%" height="100%" fill="rgba(255,255,255,0)"/>
<g transform="matrix(1.7756 0 0 1.7756 500.0081 500.0081)" id="350559">
<g style="" vector-effect="non-scaling-stroke">
		<g transform="matrix(1 0 0 1 0 -0.001)" id="Capa_1">
<path style="stroke: none; stroke-width: 1; stroke-dasharray: none; stroke-linecap: butt; stroke-dashoffset: 0; stroke-linejoin: miter; stroke-miterlimit: 4; is-custom-font: none; font-file-url: none; fill: rgb(37,132,255); fill-rule: nonzero; opacity: 1;" transform=" translate(-256, -255.999)" d="m 504.5 480.837 h -38.97 v -240.347 c 0 -4.142 -3.357 -7.5 -7.5 -7.5 s -7.5 3.358 -7.5 7.5 v 240.347 h -49.648 l -0.002 -318.357 h 49.65 v 43.01 c 0 4.142 3.357 7.5 7.5 7.5 s 7.5 -3.358 7.5 -7.5 v -50.51 c 0 -4.142 -3.357 -7.5 -7.5 -7.5 h -64.65 c -4.143 0 -7.5 3.358 -7.5 7.5 v 43.012 h -57.148 c -4.143 0 -7.5 3.358 -7.5 7.5 v 43.008 h -57.15 c -4.143 0 -7.5 3.358 -7.5 7.5 v 43.008 h -57.15 c -4.143 0 -7.5 3.358 -7.5 7.5 v 43.008 h -57.15 c -4.143 0 -7.5 3.358 -7.5 7.5 v 38.964 h -57.152 c -4.143 0 -7.5 3.358 -7.5 7.5 v 20.89 c 0 4.142 3.357 7.5 7.5 7.5 s 7.5 -3.358 7.5 -7.5 v -13.39 h 49.65 v 69.857 h -49.65 v -21.467 c 0 -4.142 -3.357 -7.5 -7.5 -7.5 s -7.5 3.358 -7.5 7.5 v 21.467 h -31.467 v -473.337 c 0 -4.142 -3.357 -7.5 -7.5 -7.5 s -7.5 3.358 -7.5 7.5 v 38.967 h -8.663 c -4.143 0 -7.5 3.358 -7.5 7.5 s 3.357 7.5 7.5 7.5 h 8.663 v 49.65 h -8.663 c -4.143 0 -7.5 3.358 -7.5 7.5 s 3.357 7.5 7.5 7.5 h 8.663 v 49.65 h -8.663 c -4.143 0 -7.5 3.358 -7.5 7.5 s 3.357 7.5 7.5 7.5 h 8.663 v 49.65 h -8.663 c -4.143 0 -7.5 3.358 -7.5 7.5 s 3.357 7.5 7.5 7.5 h 8.663 v 49.651 h -8.663 c -4.143 0 -7.5 3.358 -7.5 7.5 s 3.357 7.5 7.5 7.5 h 8.663 v 49.65 h -8.663 c -4.143 0 -7.5 3.358 -7.5 7.5 s 3.357 7.5 7.5 7.5 h 8.663 v 49.65 h -8.663 c -4.143 0 -7.5 3.358 -7.5 7.5 s 3.357 7.5 7.5 7.5 h 8.663 v 38.967 c 0 4.142 3.357 7.5 7.5 7.5 h 38.967 v 8.663 c 0 4.142 3.357 7.5 7.5 7.5 s 7.5 -3.358 7.5 -7.5 v -8.66 h 49.65 v 8.66 c 0 4.142 3.357 7.5 7.5 7.5 s 7.5 -3.358 7.5 -7.5 v -8.663 h 49.65 v 8.663 c 0 4.142 3.357 7.5 7.5 7.5 s 7.5 -3.358 7.5 -7.5 v -8.663 h 49.65 v 8.663 c 0 4.142 3.357 7.5 7.5 7.5 s 7.5 -3.358 7.5 -7.5 v -8.663 h 49.65 v 8.663 c 0 4.142 3.357 7.5 7.5 7.5 s 7.5 -3.358 7.5 -7.5 v -8.663 h 49.65 v 8.663 c 0 4.142 3.357 7.5 7.5 7.5 s 7.5 -3.358 7.5 -7.5 v -8.66 h 49.65 v 8.66 c 0 4.142 3.357 7.5 7.5 7.5 s 7.5 -3.358 7.5 -7.5 v -8.663 h 38.97 c 4.143 0 7.5 -3.358 7.5 -7.5 s -3.357 -7.498 -7.5 -7.498 z m -362.22 -116.321 h 49.65 v 116.321 h -49.65 z m 64.651 -50.508 h 49.65 v 166.829 h -49.65 z m 64.65 -50.508 h 49.65 v 217.337 h -49.65 z m 64.65 -50.508 h 49.648 v 267.846 h -49.648 z" stroke-linecap="round"/>
</g>
		<g transform="matrix(1 0 0 1 -24.3395 -86.78)" id="Capa_1">
<path style="stroke: none; stroke-width: 1; stroke-dasharray: none; stroke-linecap: butt; stroke-dashoffset: 0; stroke-linejoin: miter; stroke-miterlimit: 4; is-custom-font: none; font-file-url: none; fill: rgb(37,132,255); fill-rule: nonzero; opacity: 1;" transform=" translate(-231.6605, -169.22)" d="m 86.1 338.44 c 6.323 0 12.267 -2.46 16.734 -6.927 l 112.91 -112.91 c 2.929 -2.929 2.929 -7.678 0 -10.606 c -2.93 -2.929 -7.678 -2.929 -10.607 0 l -112.909 112.909 c -1.635 1.634 -3.811 2.534 -6.128 2.534 c -2.311 0 -4.482 -0.9 -6.116 -2.533 c -1.64 -1.64 -2.543 -3.817 -2.543 -6.13 c 0 -2.311 0.901 -4.484 2.543 -6.123 l 263.521 -263.52 c 2.145 -2.145 2.786 -5.371 1.625 -8.173 c -1.16 -2.803 -3.896 -4.63 -6.929 -4.63 h -23.61 c -4.775 0 -8.66 -3.889 -8.66 -8.67 c 0 -4.775 3.885 -8.66 8.66 -8.66 h 62.63 c 4.775 0 8.66 3.885 8.66 8.66 v 62.63 c 0 4.781 -3.885 8.67 -8.66 8.67 s -8.66 -3.889 -8.66 -8.67 v -23.611 c 0 -3.034 -1.827 -5.768 -4.63 -6.929 c -2.804 -1.161 -6.027 -0.518 -8.174 1.626 l -125.88 125.88 c -2.929 2.929 -2.929 7.678 0 10.606 c 2.93 2.929 7.678 2.929 10.607 0 l 113.076 -113.076 v 5.503 c 0 13.052 10.614 23.67 23.66 23.67 s 23.66 -10.618 23.66 -23.67 v -62.63 c 0 -13.046 -10.614 -23.66 -23.66 -23.66 h -62.63 c -13.046 0 -23.66 10.614 -23.66 23.66 c 0 13.052 10.614 23.67 23.66 23.67 h 5.504 l -250.714 250.713 c -4.475 4.469 -6.939 10.412 -6.939 16.733 c 0 6.32 2.463 12.264 6.937 16.737 c 4.466 4.467 10.405 6.927 16.722 6.927 z" stroke-linecap="round"/>
</g>
</g>
</g>
</svg>