<svg xmlns="http://www.w3.org/2000/svg" xmlns:xlink="http://www.w3.org/1999/xlink" version="1.1" width="1000" height="1000" viewBox="0 0 1000 1000" xml:space="preserve">
<desc>Created with Fabric.js 3.5.0</desc>
<defs>
</defs>
<rect x="0" y="0" width="100%" height="100%" fill="rgba(255,255,255,0)"/>
<g transform="matrix(1.7894 0 0 1.7894 500.0015 500.0015)" id="314098">
<g style="" vector-effect="non-scaling-stroke">
		<g transform="matrix(1 0 0 1 -133.0305 0.0004)" id="Capa_1">
<path style="stroke: none; stroke-width: 1; stroke-dasharray: none; stroke-linecap: butt; stroke-dashoffset: 0; stroke-linejoin: miter; stroke-miterlimit: 4; is-custom-font: none; font-file-url: none; fill: rgb(255,255,255); fill-rule: nonzero; opacity: 1;" transform=" translate(-120.9915, -254.0224)" d="M 0.108 352.536 c 0 66.794 54.144 120.938 120.937 120.938 c 66.794 0 120.938 -54.144 120.938 -120.938 s -54.144 -120.937 -120.938 -120.937 c -13.727 0 -26.867 2.393 -39.168 6.61 C 109.093 82.118 230.814 -18.543 117.979 64.303 C -7.138 156.17 -0.026 348.84 0.114 352.371 C 0.114 352.426 0.108 352.475 0.108 352.536 z" stroke-linecap="round"/>
</g>
		<g transform="matrix(1 0 0 1 133.0308 0.0004)" id="Capa_1">
<path style="stroke: none; stroke-width: 1; stroke-dasharray: none; stroke-linecap: butt; stroke-dashoffset: 0; stroke-linejoin: miter; stroke-miterlimit: 4; is-custom-font: none; font-file-url: none; fill: rgb(255,255,255); fill-rule: nonzero; opacity: 1;" transform=" translate(-387.0529, -254.0224)" d="M 266.169 352.536 c 0 66.794 54.144 120.938 120.938 120.938 s 120.938 -54.144 120.938 -120.938 S 453.9 231.599 387.106 231.599 c -13.728 0 -26.867 2.393 -39.168 6.61 C 375.154 82.118 496.875 -18.543 384.04 64.303 C 258.923 156.17 266.034 348.84 266.175 352.371 C 266.175 352.426 266.169 352.475 266.169 352.536 z" stroke-linecap="round"/>
</g>
</g>
</g>
</svg>