<svg xmlns="http://www.w3.org/2000/svg" xmlns:xlink="http://www.w3.org/1999/xlink" version="1.1" width="1000" height="1000" viewBox="0 0 1000 1000" xml:space="preserve">
<desc>Created with Fabric.js 3.5.0</desc>
<defs>
</defs>
<rect x="0" y="0" width="100%" height="100%" fill="rgba(255,255,255,0)"/>
<g transform="matrix(1.8719 0 0 1.8719 500.0042 500.0042)" id="365366">
<g style="" vector-effect="non-scaling-stroke">
		<g transform="matrix(1 0 0 1 -55.144 124)" id="Capa_1">
<path style="stroke: none; stroke-width: 1; stroke-dasharray: none; stroke-linecap: butt; stroke-dashoffset: 0; stroke-linejoin: miter; stroke-miterlimit: 4; is-custom-font: none; font-file-url: none; fill: rgb(37,132,255); fill-rule: nonzero; opacity: 1;" transform=" translate(-187.684, -366.828)" d="M 334.512 312 h -200 c -2.122 0 -4.156 0.844 -5.656 2.344 l -96 96 l 11.312 11.312 L 137.824 328 h 187.888 c -1.664 9.496 -6.888 24 -23.2 24 h -88 v 16 h 88 c 31.64 0 40 -31.4 40 -48 C 342.512 315.582 338.93 312 334.512 312 z" stroke-linecap="round"/>
</g>
		<g transform="matrix(1 0 0 1 35.9995 128.0009)" id="Capa_1">
<path style="stroke: none; stroke-width: 1; stroke-dasharray: none; stroke-linecap: butt; stroke-dashoffset: 0; stroke-linejoin: miter; stroke-miterlimit: 4; is-custom-font: none; font-file-url: none; fill: rgb(37,132,255); fill-rule: nonzero; opacity: 1;" transform=" translate(-278.8275, -370.8289)" d="M 436.168 258.344 c -3.124 -3.123 -8.188 -3.123 -11.312 0 l -72 72 l 11.312 11.312 l 65.712 -65.712 c 10.828 14.37 8.629 34.68 -5.024 46.4 L 331.2 416 H 166.512 c -2.122 0 -4.156 0.844 -5.656 2.344 l -56 56 l 11.312 11.312 L 169.824 432 h 164.688 c 2.122 0 4.156 -0.844 5.656 -2.344 l 96 -96 C 465.96 303.864 449.192 271.368 436.168 258.344 z" stroke-linecap="round"/>
</g>
		<g transform="matrix(1 0 0 1 11.684 -98.828)" id="Capa_1">
<path style="stroke: none; stroke-width: 1; stroke-dasharray: none; stroke-linecap: butt; stroke-dashoffset: 0; stroke-linejoin: miter; stroke-miterlimit: 4; is-custom-font: none; font-file-url: none; fill: rgb(37,132,255); fill-rule: nonzero; opacity: 1;" transform=" translate(-254.512, -144)" d="M 390.512 112 H 361.76 c -2.193 -7.348 -5.139 -14.45 -8.792 -21.192 l 20.344 -20.344 c 3.123 -3.124 3.123 -8.188 0 -11.312 L 339.36 25.208 c -3.124 -3.123 -8.188 -3.123 -11.312 0 l -20.344 20.344 c -6.741 -3.658 -13.843 -6.607 -21.192 -8.8 V 8 c 0 -4.418 -3.582 -8 -8 -8 h -48 c -4.418 0 -8 3.582 -8 8 v 28.752 c -7.349 2.193 -14.451 5.142 -21.192 8.8 l -20.344 -20.344 c -3.124 -3.123 -8.188 -3.123 -11.312 0 l -33.952 33.944 c -3.123 3.124 -3.123 8.188 0 11.312 l 20.352 20.344 c -3.655 6.742 -6.604 13.844 -8.8 21.192 h -28.752 c -4.418 0 -8 3.582 -8 8 v 48 c 0 4.418 3.582 8 8 8 h 28.752 c 2.193 7.348 5.139 14.45 8.792 21.192 l -20.344 20.344 c -3.123 3.124 -3.123 8.188 0 11.312 l 33.952 33.952 c 3.174 3.001 8.138 3.001 11.312 0 l 20.344 -20.352 c 6.742 3.655 13.844 6.604 21.192 8.8 V 280 c 0 4.418 3.582 8 8 8 h 48 c 4.418 0 8 -3.582 8 -8 v -28.752 c 7.348 -2.194 14.449 -5.14 21.192 -8.792 l 20.344 20.344 c 1.5 1.5 3.534 2.344 5.656 2.344 s 4.156 -0.844 5.656 -2.344 l 33.944 -33.952 c 3.123 -3.124 3.123 -8.188 0 -11.312 l -20.344 -20.344 c 3.655 -6.742 6.604 -13.844 8.8 -21.192 h 28.752 c 4.418 0 8 -3.582 8 -8 v -48 C 398.512 115.582 394.93 112 390.512 112 z M 382.513 160 h -26.888 c -3.709 0.001 -6.931 2.551 -7.784 6.16 c -2.366 9.945 -6.309 19.447 -11.68 28.144 c -1.95 3.157 -1.473 7.241 1.152 9.864 l 19.032 19.024 l -22.64 22.64 l -19.024 -19.04 c -2.623 -2.625 -6.707 -3.102 -9.864 -1.152 c -8.695 5.378 -18.197 9.325 -28.144 11.688 c -3.609 0.853 -6.159 4.075 -6.16 7.784 V 272 h -32 v -26.88 c -0.001 -3.709 -2.551 -6.931 -6.16 -7.784 c -9.947 -2.363 -19.449 -6.31 -28.144 -11.688 c -3.157 -1.95 -7.241 -1.473 -9.864 1.152 l -19.024 19.04 l -22.64 -22.64 l 19.032 -19.04 c 2.625 -2.623 3.102 -6.707 1.152 -9.864 c -5.371 -8.698 -9.314 -18.199 -11.68 -28.144 c -0.853 -3.609 -4.075 -6.159 -7.784 -6.16 h -26.888 v -32 H 153.4 c 3.709 -0.001 6.931 -2.551 7.784 -6.16 c 2.366 -9.945 6.309 -19.446 11.68 -28.144 c 1.95 -3.157 1.473 -7.241 -1.152 -9.864 L 152.68 64.8 l 22.632 -22.624 l 19.032 19.032 c 2.623 2.625 6.707 3.102 9.864 1.152 c 8.693 -5.379 18.196 -9.323 28.144 -11.68 c 3.609 -0.853 6.159 -4.075 6.16 -7.784 V 16 h 32 v 26.896 c 0.002 3.711 2.555 6.934 6.168 7.784 c 9.948 2.357 19.451 6.301 28.144 11.68 c 3.157 1.95 7.241 1.473 9.864 -1.152 l 19.024 -19.032 L 356.345 64.8 l -19.032 19.032 c -2.625 2.623 -3.102 6.707 -1.152 9.864 c 5.371 8.698 9.314 18.199 11.68 28.144 c 0.853 3.609 4.075 6.159 7.784 6.16 h 26.888 V 160 z" stroke-linecap="round"/>
</g>
		<g transform="matrix(1 0 0 1 11.684 -98.828)" id="Capa_1">
<path style="stroke: none; stroke-width: 1; stroke-dasharray: none; stroke-linecap: butt; stroke-dashoffset: 0; stroke-linejoin: miter; stroke-miterlimit: 4; is-custom-font: none; font-file-url: none; fill: rgb(37,132,255); fill-rule: nonzero; opacity: 1;" transform=" translate(-254.512, -144)" d="M 254.512 96 c -26.51 0 -48 21.49 -48 48 s 21.491 48 48 48 c 26.499 -0.026 47.974 -21.501 48 -48 C 302.512 117.49 281.022 96 254.512 96 z M 254.512 176 c -17.673 0 -32 -14.327 -32 -32 c 0 -17.673 14.327 -32 32 -32 c 17.673 0 32 14.327 32 32 C 286.512 161.673 272.185 176 254.512 176 z" stroke-linecap="round"/>
</g>
</g>
</g>
</svg>