<svg xmlns="http://www.w3.org/2000/svg" xmlns:xlink="http://www.w3.org/1999/xlink" version="1.1" width="1000" height="1000" viewBox="0 0 1000 1000" xml:space="preserve">
<desc>Created with Fabric.js 3.5.0</desc>
<defs>
</defs>
<rect x="0" y="0" width="100%" height="100%" fill="rgba(255,255,255,0)"/>
<g transform="matrix(1.7756 0 0 1.7756 500.0081 500.0081)" id="193582">
<g style="" vector-effect="non-scaling-stroke">
		<g transform="matrix(1 0 0 1 0.0021 0.0005)" id="Guide">
<path style="stroke: none; stroke-width: 1; stroke-dasharray: none; stroke-linecap: butt; stroke-dashoffset: 0; stroke-linejoin: miter; stroke-miterlimit: 4; is-custom-font: none; font-file-url: none; fill: rgb(37,132,255); fill-rule: nonzero; opacity: 1;" transform=" translate(-256.0021, -256.0005)" d="m 460.646 10 h -416.708 c -18.714 0 -33.938 15.521 -33.938 34.6 v 420.122 c 0 19.078 15.224 34.6 33.89 34.6 c 3.139 0.025 315.346 2.492 438.5 2.679 h 0.03 a 19.282 19.282 0 0 0 13.827 -5.813 a 19.917 19.917 0 0 0 5.753 -14.418 l -7.421 -437.793 c -0.33 -18.735 -15.553 -33.977 -33.933 -33.977 z m -416.708 12 h 416.708 c 11.879 0 21.719 9.954 21.935 22.184 l 6.511 384.244 l -96.777 -99.462 a 33.563 33.563 0 0 0 -54.35 -3.721 l -45.03 53.805 a 21.4 21.4 0 0 1 -18.452 7.764 a 21.636 21.636 0 0 1 -17.013 -10.959 l -81.253 -140.576 a 33.583 33.583 0 0 0 -56.1 -3.578 l -98.117 113.313 v -300.414 c 0 -12.462 9.841 -22.6 21.938 -22.6 z m 443.767 465.764 a 7.377 7.377 0 0 1 -5.282 2.236 h -0.011 c -123.12 -0.187 -435.288 -2.654 -438.474 -2.679 c -12.1 0 -21.938 -10.138 -21.938 -22.6 v -101.375 l 107.321 -123.946 l 0.271 -0.337 a 21.585 21.585 0 0 1 36.236 2.221 l 81.252 140.576 a 33.576 33.576 0 0 0 55.057 4.892 l 45.03 -53.805 a 21.57 21.57 0 0 1 35.25 2.83 l 0.356 0.591 l 106.615 109.572 l 0.612 36.028 a 8.007 8.007 0 0 1 -2.295 5.796 z" stroke-linecap="round"/>
</g>
		<g transform="matrix(1 0 0 1 28.9885 -92.495)" id="Guide">
<path style="stroke: none; stroke-width: 1; stroke-dasharray: none; stroke-linecap: butt; stroke-dashoffset: 0; stroke-linejoin: miter; stroke-miterlimit: 4; is-custom-font: none; font-file-url: none; fill: rgb(37,132,255); fill-rule: nonzero; opacity: 1;" transform=" translate(-284.9885, -163.505)" d="m 284.988 218.5 c 29.7 0 53.864 -24.671 53.864 -54.995 s -24.164 -54.995 -53.864 -54.995 s -53.863 24.671 -53.863 54.995 s 24.163 54.995 53.863 54.995 z m 0 -97.99 c 23.084 0 41.864 19.287 41.864 42.995 s -18.78 43 -41.864 43 s -41.863 -19.288 -41.863 -42.995 s 18.775 -42.996 41.863 -42.996 z" stroke-linecap="round"/>
</g>
</g>
</g>
</svg>