<svg xmlns="http://www.w3.org/2000/svg" xmlns:xlink="http://www.w3.org/1999/xlink" version="1.1" width="1000" height="1000" viewBox="0 0 1000 1000" xml:space="preserve">
<desc>Created with Fabric.js 3.5.0</desc>
<defs>
</defs>
<rect x="0" y="0" width="100%" height="100%" fill="rgba(255,255,255,0)"/>
<g transform="matrix(1.7756 0 0 1.7756 500.0081 500.0081)" id="851299">
<g style="" vector-effect="non-scaling-stroke">
		<g transform="matrix(1 0 0 1 -176.5222 60.5809)" id="Layer_1">
<path style="stroke: none; stroke-width: 1; stroke-dasharray: none; stroke-linecap: butt; stroke-dashoffset: 0; stroke-linejoin: miter; stroke-miterlimit: 4; is-custom-font: none; font-file-url: none; fill: rgb(37,132,255); fill-rule: nonzero; opacity: 1;" transform=" translate(-79.4778, -316.5809)" d="M 41.073 152.466 c -1.425 -3.903 -5.074 -6.551 -9.226 -6.696 c -4.175 -0.132 -7.977 2.245 -9.669 6.039 C 7.468 184.791 0.009 219.844 0.009 255.99 c 0 48.964 13.875 96.559 40.124 137.639 c 25.548 39.983 61.564 72.053 104.158 92.743 c 1.418 0.69 2.941 1.025 4.454 1.025 c 2.474 0 4.921 -0.9 6.836 -2.629 c 3.085 -2.785 4.172 -7.164 2.747 -11.068 L 41.073 152.466 z M 20.408 255.99 c 0 -24.264 3.652 -47.994 10.883 -70.837 l 98.5 269.854 C 61.706 412.039 20.408 337.973 20.408 255.99 z" stroke-linecap="round"/>
</g>
		<g transform="matrix(1 0 0 1 6.0987 133.646)" id="Layer_1">
<path style="stroke: none; stroke-width: 1; stroke-dasharray: none; stroke-linecap: butt; stroke-dashoffset: 0; stroke-linejoin: miter; stroke-miterlimit: 4; is-custom-font: none; font-file-url: none; fill: rgb(37,132,255); fill-rule: nonzero; opacity: 1;" transform=" translate(-262.0987, -389.646)" d="M 345.376 480.765 l -75.473 -206.771 c -1.471 -4.028 -5.3 -6.702 -9.58 -6.702 c -0.032 0 -0.064 0 -0.096 0 c -4.318 0.041 -8.143 2.796 -9.55 6.88 l -73.753 214.293 c -0.907 2.633 -0.697 5.523 0.581 7.998 c 1.278 2.475 3.513 4.319 6.185 5.106 C 207.225 508.492 231.555 512 256.001 512 c 29.053 0 57.656 -4.883 85.015 -14.514 c 2.907 -1.024 5.195 -3.307 6.226 -6.212 c 1.031 -2.905 0.692 -6.121 -0.922 -8.747 C 345.897 481.836 345.594 481.272 345.376 480.765 z M 256.001 491.602 c -18.944 0 -37.814 -2.291 -56.238 -6.818 l 60.841 -176.773 l 63.36 173.59 C 301.937 488.241 279.126 491.602 256.001 491.602 z" stroke-linecap="round"/>
</g>
		<g transform="matrix(1 0 0 1 -19.6926 -54.056)" id="Layer_1">
<path style="stroke: none; stroke-width: 1; stroke-dasharray: none; stroke-linecap: butt; stroke-dashoffset: 0; stroke-linejoin: miter; stroke-miterlimit: 4; is-custom-font: none; font-file-url: none; fill: rgb(37,132,255); fill-rule: nonzero; opacity: 1;" transform=" translate(-236.3074, -201.944)" d="M 373.292 403.888 c 4.314 0 8.167 -2.717 9.612 -6.788 l 27.138 -76.438 c 13.018 -33.396 19.346 -60.555 19.346 -83.022 c 0 -33.87 -10.023 -51.413 -18.869 -66.891 c -0.054 -0.094 -0.109 -0.189 -0.167 -0.283 c -0.982 -1.597 -1.959 -3.175 -2.926 -4.737 c -10.569 -17.065 -19.698 -31.803 -19.698 -47.571 c 0 -16.074 11.879 -33.424 31.069 -33.424 c 0.317 0 0.804 0.041 1.321 0.085 c 0.404 0.034 0.805 0.067 1.209 0.093 c 4.329 0.281 8.341 -2.2 10.038 -6.179 c 1.696 -3.979 0.699 -8.597 -2.492 -11.52 C 381.573 23.87 320.18 0 256.001 0 C 169.666 0 89.708 43.127 42.115 115.365 c -2.031 3.083 -2.238 7.022 -0.541 10.3 c 1.696 3.277 5.032 5.383 8.72 5.505 c 6.281 0.208 11.719 0.314 16.16 0.314 c 23.686 0 58.376 -2.55 65.182 -3.068 c 1.089 1.962 1.193 6.64 0.137 8.39 c -2.685 0.3 -14.319 1.553 -26.893 2.209 c -3.185 0.166 -6.108 1.811 -7.902 4.449 c -1.794 2.636 -2.251 5.961 -1.235 8.984 l 80.48 239.565 c 1.395 4.153 5.286 6.951 9.668 6.951 c 0.004 0 0.008 0 0.011 0 c 4.386 -0.005 8.278 -2.813 9.665 -6.973 l 53.793 -161.323 c 0.738 -2.214 0.696 -4.613 -0.122 -6.8 l -29.269 -78.243 c -1.416 -3.782 -4.928 -6.373 -8.959 -6.608 c -11.584 -0.675 -22.772 -1.988 -24.791 -2.231 c -0.919 -1.946 -0.707 -6.437 0.377 -8.368 c 7.002 0.524 42.099 3.064 64.336 3.064 c 23.69 0 58.382 -2.55 65.184 -3.068 c 1.09 1.961 1.196 6.641 0.139 8.389 c -2.677 0.3 -14.328 1.554 -26.896 2.211 c -3.193 0.166 -6.123 1.821 -7.916 4.469 c -1.792 2.648 -2.239 5.983 -1.207 9.009 l 83.404 244.49 c 1.401 4.108 5.25 6.879 9.59 6.906 C 373.25 403.888 373.27 403.888 373.292 403.888 z M 303.83 158.48 c 8.698 -0.708 14.988 -1.437 15.375 -1.483 c 11.726 -1.386 19.321 -12.743 18.061 -27.005 c -1.206 -13.633 -10.034 -22.696 -21.423 -22.014 c -0.065 0.004 -0.133 0.008 -0.198 0.013 c -0.395 0.031 -39.714 3.092 -64.716 3.092 c -23.477 0 -63.551 -3.063 -63.953 -3.093 c -0.061 -0.005 -0.122 -0.009 -0.184 -0.012 c -11.588 -0.695 -20.652 9.083 -21.489 23.228 c -0.836 14.126 6.861 24.914 18.351 25.817 c 1.624 0.197 9.756 1.164 19.509 1.907 l 25.701 68.706 l -43.012 128.993 l -66.564 -198.143 c 8.736 -0.709 15.053 -1.442 15.444 -1.488 c 11.724 -1.386 19.316 -12.747 18.055 -27.012 c -1.207 -13.629 -10.032 -22.697 -21.419 -22.007 c -0.065 0.004 -0.133 0.008 -0.198 0.013 c -0.374 0.031 -35.884 2.795 -60.879 3.071 c 44.547 -57.103 112.646 -90.666 185.71 -90.666 c 51.924 0 101.868 16.978 142.757 48.187 c -18.452 8.187 -31.428 27.326 -31.428 49.574 c 0 21.573 11.053 39.419 22.755 58.312 c 0.927 1.497 1.864 3.01 2.806 4.541 c 8.29 14.509 16.097 28.269 16.097 56.629 c 0 19.642 -6.058 45.128 -18.008 75.755 c -0.038 0.098 -0.074 0.196 -0.109 0.295 l -17.388 48.972 L 303.83 158.48 z" stroke-linecap="round"/>
</g>
		<g transform="matrix(1 0 0 1 184.6844 47.2582)" id="Layer_1">
<path style="stroke: none; stroke-width: 1; stroke-dasharray: none; stroke-linecap: butt; stroke-dashoffset: 0; stroke-linejoin: miter; stroke-miterlimit: 4; is-custom-font: none; font-file-url: none; fill: rgb(37,132,255); fill-rule: nonzero; opacity: 1;" transform=" translate(-440.6845, -303.2581)" d="M 480.631 133.175 c -2.361 -4.308 -7.461 -6.319 -12.133 -4.786 c -4.669 1.538 -7.577 6.188 -6.917 11.059 c 1.038 7.665 1.566 15.707 1.566 23.901 c 0 26.824 -5.711 53.594 -17.971 84.247 c -0.06 0.15 -0.116 0.302 -0.169 0.454 l -75.07 217.056 c -1.393 4.031 -0.132 8.504 3.164 11.213 c 1.868 1.534 4.166 2.319 6.479 2.319 c 1.765 0 3.539 -0.458 5.132 -1.388 c 38.017 -22.163 69.889 -53.921 92.171 -91.842 c 22.969 -39.088 35.109 -83.839 35.109 -129.417 C 511.991 213.087 501.147 170.617 480.631 133.175 z M 399.158 443.029 l 65.051 -188.086 c 9.331 -23.375 15.137 -44.781 17.736 -65.726 c 6.365 21.591 9.65 44.116 9.65 66.774 C 491.595 329.489 456.798 398.762 399.158 443.029 z" stroke-linecap="round"/>
</g>
		<g transform="matrix(1 0 0 1 2.381 125.4494)" id="Layer_1">
<path style="stroke: none; stroke-width: 1; stroke-dasharray: none; stroke-linecap: butt; stroke-dashoffset: 0; stroke-linejoin: miter; stroke-miterlimit: 4; is-custom-font: none; font-file-url: none; fill: rgb(37,132,255); fill-rule: nonzero; opacity: 1;" transform=" translate(-258.381, -381.4493)" d="M 262.286 369.734 c -5.342 -1.782 -11.119 1.108 -12.901 6.451 l -1.36 4.079 c -1.781 5.343 1.108 11.119 6.451 12.901 c 1.07 0.357 2.157 0.526 3.226 0.526 c 4.27 0 8.25 -2.703 9.675 -6.977 l 1.36 -4.079 C 270.518 377.292 267.629 371.516 262.286 369.734 z" stroke-linecap="round"/>
</g>
		<g transform="matrix(1 0 0 1 -18.0177 186.6445)" id="Layer_1">
<path style="stroke: none; stroke-width: 1; stroke-dasharray: none; stroke-linecap: butt; stroke-dashoffset: 0; stroke-linejoin: miter; stroke-miterlimit: 4; is-custom-font: none; font-file-url: none; fill: rgb(37,132,255); fill-rule: nonzero; opacity: 1;" transform=" translate(-237.9822, -442.6446)" d="M 249.707 407.472 c -5.344 -1.786 -11.119 1.108 -12.901 6.45 l -16.999 50.996 c -1.781 5.343 1.108 11.119 6.451 12.9 c 1.07 0.358 2.157 0.527 3.226 0.527 c 4.27 0 8.25 -2.703 9.675 -6.977 l 16.998 -50.996 C 257.939 415.029 255.05 409.253 249.707 407.472 z" stroke-linecap="round"/>
</g>
</g>
</g>
</svg>